<svg id="Layer_1" data-name="Layer 1" xmlns="http://www.w3.org/2000/svg" viewBox="0 0 665.18 116.89"><defs><style>.cls-1{fill:#003a70;}.cls-2{fill:#fff;}.cls-3{fill:#5eb3e4;}</style></defs><title>Artboard 3 copy 2</title><path class="cls-1" d="M665.18,53.69v-20h-20.7V0L623.39,3.72V77.93c0,27,19.61,35.15,30.71,36.63l4.81-17c-8.51-2.59-14.43-5.92-14.43-20V53.69Z"/><path class="cls-1" d="M529.21,79.61H479.52a17.12,17.12,0,0,0,7.26,13.25q6.54,4.65,17.37,4.65a42,42,0,0,0,10-1.21A28.67,28.67,0,0,0,522,93.36h4.13l4.27,14.18a63.08,63.08,0,0,1-28.76,6.73q-19.23,0-30.55-10.38T459.72,73.45q0-13,4.85-22.34A33.05,33.05,0,0,1,478.09,37,43.23,43.23,0,0,1,517,36.64,32.1,32.1,0,0,1,530,49a36,36,0,0,1,4.62,18.41V74ZM515.83,64.86a14.16,14.16,0,0,0-5.06-11q-5.06-4.51-12.88-4.51a19,19,0,0,0-13,4.58,16,16,0,0,0-5.49,11.89h36.46Z"/><path class="cls-1" d="M147.4,109.93a32.78,32.78,0,0,1-13.16-14.09q-4.63-9.23-4.64-22t4.5-22A32.55,32.55,0,0,1,147,37.78q8.37-4.94,19.81-4.93a41.94,41.94,0,0,1,15.51,2.79,33.77,33.77,0,0,1,11.87,7.65A25.44,25.44,0,0,1,200.67,54l-11,5.87h-4a23.81,23.81,0,0,0-7.5-6.94,19.61,19.61,0,0,0-10.09-2.64,15.9,15.9,0,0,0-13.3,6.29q-4.86,6.28-4.86,17.3t5,17.23q5,6.22,13.73,6.22a16.37,16.37,0,0,0,9.65-2.86,29.94,29.94,0,0,0,7.36-7.58h4l11.15,6.87a28,28,0,0,1-11.72,15.08q-8.88,5.94-21.74,5.94A39.52,39.52,0,0,1,147.4,109.93Z"/><path class="cls-1" d="M561.12,109.93A32.7,32.7,0,0,1,548,95.84q-4.65-9.23-4.65-22t4.5-22a32.67,32.67,0,0,1,12.87-14.16q8.37-4.94,19.81-4.93A41.91,41.91,0,0,1,596,35.64a33.77,33.77,0,0,1,11.87,7.65A25.24,25.24,0,0,1,614.39,54l-11,5.87h-4a24,24,0,0,0-7.51-6.94,19.6,19.6,0,0,0-10.08-2.64,15.87,15.87,0,0,0-13.3,6.29q-4.87,6.28-4.86,17.3t5,17.23q5,6.22,13.73,6.22A16.34,16.34,0,0,0,592,94.48a30.14,30.14,0,0,0,7.37-7.58h4l11.15,6.87a28,28,0,0,1-11.72,15.08q-8.87,5.94-21.74,5.94A39.52,39.52,0,0,1,561.12,109.93Z"/><path class="cls-1" d="M227.27,109.31a32.73,32.73,0,0,1-13.09-14.16q-4.58-9.23-4.58-22t4.58-21.81a32.73,32.73,0,0,1,13.09-14.16q8.5-4.92,20.09-4.93a39.84,39.84,0,0,1,20.16,4.93,32.7,32.7,0,0,1,13.16,14.16q4.57,9.22,4.57,21.81t-4.57,22a32.7,32.7,0,0,1-13.16,14.16q-8.58,4.93-20.16,4.93T227.27,109.31Zm33-18.59q4.71-6.36,4.72-17.52,0-11-4.72-17.3a16.3,16.3,0,0,0-25.74,0q-4.73,6.29-4.72,17.3t4.72,17.52a16.2,16.2,0,0,0,25.74,0Z"/><path class="cls-1" d="M357.85,40.35q7.23,8.16,7.23,22.31V113H344.91V61.66a13.66,13.66,0,0,0-3.57-9.87q-3.58-3.72-9.73-3.72a20.91,20.91,0,0,0-9.36,2.22,27,27,0,0,0-7.94,5.93V113H294.15V33.49h19V45.07Q324.32,32.2,338.62,32.2,350.64,32.2,357.85,40.35Z"/><path class="cls-1" d="M443.59,40.35q7.21,8.16,7.22,22.31V113H430.64V61.66a13.66,13.66,0,0,0-3.57-9.87q-3.57-3.72-9.73-3.72A20.91,20.91,0,0,0,408,50.29,27.1,27.1,0,0,0,400,56.22V113H379.88V33.49h19V45.07Q410,32.2,424.35,32.2,436.37,32.2,443.59,40.35Z"/><polygon class="cls-1" points="64.62 116.89 97.11 101.56 97.11 29.28 64.62 44.61 64.62 116.89"/><polygon class="cls-1" points="45.27 116.89 45.27 50.09 21.17 39.86 23 34.02 45.27 34.02 54.76 3.72 12.05 3.72 0 43.15 11.32 50.45 11.32 101.56 45.27 116.89"/><rect class="cls-2" x="232.83" y="22.5" width="29.05" height="50.1"/><rect class="cls-3" x="239.05" y="29.28" width="16.61" height="38.78" rx="3.53"/></svg>